<svg width="40" height="40" viewBox="0 0 40 40" fill="none" xmlns="http://www.w3.org/2000/svg">
<path d="M27.8498 23.4429V35.2805C27.8498 37.1373 27.5313 38.401 26.8942 39.0716C26.3026 39.6905 25.0967 40 23.2764 40H16.7236C15.8134 40 15.0626 39.9226 14.471 39.7679C13.8794 39.6132 13.4016 39.381 13.0375 39.0716C12.719 38.7105 12.4915 38.2205 12.3549 37.6015C12.2184 36.9826 12.1502 36.2089 12.1502 35.2805V23.4429H2.25256C1.38794 23.4429 0.796357 23.314 0.477814 23.0561C0.15927 22.7466 0 22.1792 0 21.354V18.5687C0 17.7434 0.15927 17.2018 0.477814 16.9439C0.796357 16.6344 1.38794 16.4797 2.25256 16.4797H12.1502V4.71953C12.1502 3.7911 12.2184 3.01741 12.3549 2.39845C12.4915 1.7795 12.719 1.31528 13.0375 1.0058C13.4016 0.644745 13.8794 0.386847 14.471 0.23211C15.0626 0.07737 15.8134 0 16.7236 0H23.2764C25.0967 0 26.3026 0.335268 26.8942 1.0058C27.5313 1.62476 27.8498 2.86267 27.8498 4.71953V16.4797H37.7474C38.6121 16.4797 39.2036 16.6344 39.5222 16.9439C39.8407 17.2018 40 17.7434 40 18.5687V21.354C40 22.1792 39.8407 22.7466 39.5222 23.0561C39.2036 23.314 38.6121 23.4429 37.7474 23.4429H27.8498Z" fill="#FFD600"/>
</svg>
