<svg width="85" height="85" viewBox="0 0 85 85" fill="none" xmlns="http://www.w3.org/2000/svg">
<circle cx="42.5" cy="42.5" r="42.5" fill="#2C3E50"/>
<path d="M50.7299 46.0255V58.6622C50.7299 60.6444 50.3899 61.9934 49.7098 62.7092C49.0782 63.3699 47.7909 63.7003 45.8478 63.7003H38.8525C37.881 63.7003 37.0794 63.6177 36.4479 63.4525C35.8164 63.2873 35.3063 63.0396 34.9177 62.7092C34.5776 62.3238 34.3347 61.8007 34.189 61.1399C34.0433 60.4792 33.9704 59.6533 33.9704 58.6622V46.0255H23.4046C22.4816 46.0255 21.8501 45.8879 21.5101 45.6126C21.17 45.2822 21 44.6765 21 43.7955V40.8222C21 39.9412 21.17 39.3631 21.5101 39.0877C21.8501 38.7574 22.4816 38.5922 23.4046 38.5922H33.9704V26.0381C33.9704 25.047 34.0433 24.2211 34.189 23.5604C34.3347 22.8996 34.5776 22.4041 34.9177 22.0737C35.3063 21.6883 35.8164 21.413 36.4479 21.2478C37.0794 21.0826 37.881 21 38.8525 21H45.8478C47.7909 21 49.0782 21.3579 49.7098 22.0737C50.3899 22.7344 50.7299 24.0559 50.7299 26.0381V38.5922H61.2957C62.2187 38.5922 62.8502 38.7574 63.1902 39.0877C63.5303 39.3631 63.7003 39.9412 63.7003 40.8222V43.7955C63.7003 44.6765 63.5303 45.2822 63.1902 45.6126C62.8502 45.8879 62.2187 46.0255 61.2957 46.0255H50.7299Z" fill="#2C3E50"/>
<path d="M50.7299 46.0255V58.6622C50.7299 60.6444 50.3899 61.9934 49.7098 62.7092C49.0782 63.3699 47.7909 63.7003 45.8478 63.7003H38.8525C37.881 63.7003 37.0794 63.6177 36.4479 63.4525C35.8164 63.2873 35.3063 63.0396 34.9177 62.7092C34.5776 62.3238 34.3347 61.8007 34.189 61.1399C34.0433 60.4792 33.9704 59.6533 33.9704 58.6622V46.0255H23.4046C22.4816 46.0255 21.8501 45.8879 21.5101 45.6126C21.17 45.2822 21 44.6765 21 43.7955V40.8222C21 39.9412 21.17 39.3631 21.5101 39.0877C21.8501 38.7574 22.4816 38.5922 23.4046 38.5922H33.9704V26.0381C33.9704 25.047 34.0433 24.2211 34.189 23.5604C34.3347 22.8996 34.5776 22.4041 34.9177 22.0737C35.3063 21.6883 35.8164 21.413 36.4479 21.2478C37.0794 21.0826 37.881 21 38.8525 21H45.8478C47.7909 21 49.0782 21.3579 49.7098 22.0737C50.3899 22.7344 50.7299 24.0559 50.7299 26.0381V38.5922H61.2957C62.2187 38.5922 62.8502 38.7574 63.1902 39.0877C63.5303 39.3631 63.7003 39.9412 63.7003 40.8222V43.7955C63.7003 44.6765 63.5303 45.2822 63.1902 45.6126C62.8502 45.8879 62.2187 46.0255 61.2957 46.0255H50.7299Z" fill="#FFD600"/>
</svg>
