<svg width="30" height="31" viewBox="0 0 30 31" fill="none" xmlns="http://www.w3.org/2000/svg">
<path d="M22.5 28.4166C21.4583 28.4166 20.5729 28.0398 19.8438 27.2864C19.1146 26.5329 18.75 25.618 18.75 24.5416C18.75 24.3909 18.7604 24.2348 18.7813 24.0734C18.8021 23.9119 18.8333 23.7666 18.875 23.6374L10.0625 18.3416C9.70833 18.6645 9.3125 18.9175 8.875 19.1004C8.4375 19.2834 7.97917 19.3749 7.5 19.3749C6.45833 19.3749 5.57292 18.9982 4.84375 18.2447C4.11458 17.4912 3.75 16.5763 3.75 15.4999C3.75 14.4235 4.11458 13.5086 4.84375 12.7551C5.57292 12.0017 6.45833 11.6249 7.5 11.6249C7.97917 11.6249 8.4375 11.7164 8.875 11.8994C9.3125 12.0824 9.70833 12.3353 10.0625 12.6583L18.875 7.36242C18.8333 7.23325 18.8021 7.08794 18.7813 6.92648C18.7604 6.76502 18.75 6.60895 18.75 6.45825C18.75 5.38186 19.1146 4.46693 19.8438 3.71346C20.5729 2.95999 21.4583 2.58325 22.5 2.58325C23.5417 2.58325 24.4271 2.95999 25.1562 3.71346C25.8854 4.46693 26.25 5.38186 26.25 6.45825C26.25 7.53464 25.8854 8.44957 25.1562 9.20304C24.4271 9.95652 23.5417 10.3333 22.5 10.3333C22.0208 10.3333 21.5625 10.2418 21.125 10.0588C20.6875 9.87579 20.2917 9.62284 19.9375 9.29992L11.125 14.5958C11.1667 14.7249 11.1979 14.8702 11.2188 15.0317C11.2396 15.1931 11.25 15.3492 11.25 15.4999C11.25 15.6506 11.2396 15.8067 11.2188 15.9681C11.1979 16.1296 11.1667 16.2749 11.125 16.4041L19.9375 21.6999C20.2917 21.377 20.6875 21.1241 21.125 20.9411C21.5625 20.7581 22.0208 20.6666 22.5 20.6666C23.5417 20.6666 24.4271 21.0433 25.1562 21.7968C25.8854 22.5503 26.25 23.4652 26.25 24.5416C26.25 25.618 25.8854 26.5329 25.1562 27.2864C24.4271 28.0398 23.5417 28.4166 22.5 28.4166ZM22.5 7.74992C22.8542 7.74992 23.151 7.62613 23.3906 7.37856C23.6302 7.13099 23.75 6.82422 23.75 6.45825C23.75 6.09228 23.6302 5.78551 23.3906 5.53794C23.151 5.29037 22.8542 5.16659 22.5 5.16659C22.1458 5.16659 21.849 5.29037 21.6094 5.53794C21.3698 5.78551 21.25 6.09228 21.25 6.45825C21.25 6.82422 21.3698 7.13099 21.6094 7.37856C21.849 7.62613 22.1458 7.74992 22.5 7.74992ZM7.5 16.7916C7.85417 16.7916 8.15104 16.6678 8.39062 16.4202C8.63021 16.1727 8.75 15.8659 8.75 15.4999C8.75 15.1339 8.63021 14.8272 8.39062 14.5796C8.15104 14.332 7.85417 14.2083 7.5 14.2083C7.14583 14.2083 6.84896 14.332 6.60938 14.5796C6.36979 14.8272 6.25 15.1339 6.25 15.4999C6.25 15.8659 6.36979 16.1727 6.60938 16.4202C6.84896 16.6678 7.14583 16.7916 7.5 16.7916ZM22.5 25.8333C22.8542 25.8333 23.151 25.7095 23.3906 25.4619C23.6302 25.2143 23.75 24.9076 23.75 24.5416C23.75 24.1756 23.6302 23.8688 23.3906 23.6213C23.151 23.3737 22.8542 23.2499 22.5 23.2499C22.1458 23.2499 21.849 23.3737 21.6094 23.6213C21.3698 23.8688 21.25 24.1756 21.25 24.5416C21.25 24.9076 21.3698 25.2143 21.6094 25.4619C21.849 25.7095 22.1458 25.8333 22.5 25.8333Z" fill="#1D1B20"/>
</svg>
