<svg width="17" height="17" viewBox="0 0 17 17" fill="none" xmlns="http://www.w3.org/2000/svg">
<path d="M11.6041 9.76789V14.7002C11.6041 15.4739 11.4714 16.0004 11.2059 16.2798C10.9594 16.5377 10.457 16.6667 9.69852 16.6667H6.96814C6.58893 16.6667 6.27607 16.6344 6.02958 16.5699C5.78309 16.5055 5.58399 16.4088 5.43231 16.2798C5.29958 16.1294 5.20477 15.9252 5.14789 15.6673C5.09101 15.4094 5.06257 15.087 5.06257 14.7002V9.76789H0.938566C0.578308 9.76789 0.331815 9.71416 0.199089 9.6067C0.0663623 9.47775 0 9.24135 0 8.89748V7.73694C0 7.39308 0.0663623 7.16742 0.199089 7.05996C0.331815 6.93101 0.578308 6.86653 0.938566 6.86653H5.06257V1.96647C5.06257 1.57962 5.09101 1.25725 5.14789 0.999355C5.20477 0.741456 5.29958 0.548033 5.43231 0.419085C5.58399 0.268644 5.78309 0.161186 6.02958 0.0967124C6.27607 0.0322375 6.58893 0 6.96814 0H9.69852C10.457 0 10.9594 0.139695 11.2059 0.419085C11.4714 0.676982 11.6041 1.19278 11.6041 1.96647V6.86653H15.7281C16.0884 6.86653 16.3348 6.93101 16.4676 7.05996C16.6003 7.16742 16.6667 7.39308 16.6667 7.73694V8.89748C16.6667 9.24135 16.6003 9.47775 16.4676 9.6067C16.3348 9.71416 16.0884 9.76789 15.7281 9.76789H11.6041Z" fill="#2C3E50"/>
<path d="M11.6041 9.76789V14.7002C11.6041 15.4739 11.4714 16.0004 11.2059 16.2798C10.9594 16.5377 10.457 16.6667 9.69852 16.6667H6.96814C6.58893 16.6667 6.27607 16.6344 6.02958 16.5699C5.78309 16.5055 5.58399 16.4088 5.43231 16.2798C5.29958 16.1294 5.20477 15.9252 5.14789 15.6673C5.09101 15.4094 5.06257 15.087 5.06257 14.7002V9.76789H0.938566C0.578308 9.76789 0.331815 9.71416 0.199089 9.6067C0.0663623 9.47775 0 9.24135 0 8.89748V7.73694C0 7.39308 0.0663623 7.16742 0.199089 7.05996C0.331815 6.93101 0.578308 6.86653 0.938566 6.86653H5.06257V1.96647C5.06257 1.57962 5.09101 1.25725 5.14789 0.999355C5.20477 0.741456 5.29958 0.548033 5.43231 0.419085C5.58399 0.268644 5.78309 0.161186 6.02958 0.0967124C6.27607 0.0322375 6.58893 0 6.96814 0H9.69852C10.457 0 10.9594 0.139695 11.2059 0.419085C11.4714 0.676982 11.6041 1.19278 11.6041 1.96647V6.86653H15.7281C16.0884 6.86653 16.3348 6.93101 16.4676 7.05996C16.6003 7.16742 16.6667 7.39308 16.6667 7.73694V8.89748C16.6667 9.24135 16.6003 9.47775 16.4676 9.6067C16.3348 9.71416 16.0884 9.76789 15.7281 9.76789H11.6041Z" fill="#FFD600"/>
</svg>
