<svg width="23" height="20" viewBox="0 0 23 20" fill="none" xmlns="http://www.w3.org/2000/svg">
<path d="M19.4875 2.54467C18.998 2.05496 18.4168 1.66649 17.7772 1.40145C17.1376 1.13642 16.452 1 15.7596 1C15.0672 1 14.3816 1.13642 13.7419 1.40145C13.1023 1.66649 12.5211 2.05496 12.0317 2.54467L11.0158 3.5605L9.99999 2.54467C9.01128 1.55596 7.67031 1.00051 6.27207 1.00051C4.87383 1.00051 3.53286 1.55596 2.54415 2.54467C1.55545 3.53337 1 4.87434 1 6.27258C1 7.67082 1.55545 9.01179 2.54415 10.0005L11.0158 18.4722L19.4875 10.0005C19.9772 9.51102 20.3657 8.92986 20.6307 8.29021C20.8957 7.65057 21.0322 6.96497 21.0322 6.27258C21.0322 5.5802 20.8957 4.8946 20.6307 4.25495C20.3657 3.6153 19.9772 3.03414 19.4875 2.54467Z" stroke="#C9C9C9" stroke-width="2" stroke-linecap="round" stroke-linejoin="round"/>
</svg>
