<svg width="23" height="23" viewBox="0 0 23 23" fill="none" xmlns="http://www.w3.org/2000/svg">
<path d="M19.9717 4.4179C19.4822 3.92819 18.901 3.53972 18.2614 3.27468C17.6217 3.00965 16.9361 2.87323 16.2438 2.87323C15.5514 2.87323 14.8658 3.00965 14.2261 3.27468C13.5865 3.53972 13.0053 3.92819 12.5158 4.4179L11.5 5.43373L10.4842 4.4179C9.49547 3.42919 8.1545 2.87374 6.75626 2.87374C5.35802 2.87374 4.01705 3.42919 3.02835 4.4179C2.03964 5.4066 1.48419 6.74757 1.48419 8.14581C1.48419 9.54405 2.03964 10.885 3.02835 11.8737L11.5 20.3454L19.9717 11.8737C20.4614 11.3843 20.8498 10.8031 21.1149 10.1634C21.3799 9.5238 21.5163 8.8382 21.5163 8.14581C21.5163 7.45343 21.3799 6.76783 21.1149 6.12818C20.8498 5.48853 20.4614 4.90737 19.9717 4.4179Z" fill="#FFD600" stroke="#FFD600" stroke-width="2" stroke-linecap="round" stroke-linejoin="round"/>
</svg>
